<svg xmlns="http://www.w3.org/2000/svg" width="985" height="985" viewBox="0 0 985 985"><defs><style>.a{fill:#f2e972;}.b{fill:#707070;}</style></defs><g transform="translate(-453 95)"><circle class="a" cx="492.5" cy="492.5" r="492.5" transform="translate(453 -95)"/><path class="b" d="M492.5,1a499.4,499.4,0,0,0-50.254,2.538,492.768,492.768,0,0,0-48.8,7.448c-15.834,3.24-31.682,7.315-47.1,12.111-15.248,4.742-30.44,10.3-45.156,16.527-14.58,6.167-29.035,13.13-42.964,20.7-13.83,7.513-27.464,15.8-40.524,24.619-13,8.781-25.727,18.3-37.838,28.294-12.081,9.97-23.824,20.643-34.9,31.723s-21.753,22.823-31.723,34.9C103.24,191.971,93.721,204.7,84.94,217.7c-8.823,13.06-17.106,26.694-24.619,40.524-7.566,13.929-14.53,28.384-20.7,42.964C33.4,315.9,27.839,331.095,23.1,346.343c-4.8,15.42-8.871,31.268-12.111,47.1a492.768,492.768,0,0,0-7.448,48.8,498.884,498.884,0,0,0,0,100.509,492.772,492.772,0,0,0,7.448,48.8c3.24,15.834,7.315,31.682,12.111,47.1,4.742,15.248,10.3,30.44,16.527,45.156,6.167,14.58,13.13,29.035,20.7,42.964,7.513,13.83,15.8,27.464,24.619,40.524,8.781,13,18.3,25.727,28.294,37.838,9.97,12.081,20.643,23.824,31.723,34.9s22.823,21.753,34.9,31.723c12.11,9.994,24.841,19.514,37.838,28.294,13.06,8.823,26.694,17.106,40.524,24.619,13.929,7.566,28.384,14.53,42.964,20.7,14.716,6.224,29.908,11.785,45.156,16.527,15.42,4.8,31.268,8.871,47.1,12.111a492.768,492.768,0,0,0,48.8,7.448,498.884,498.884,0,0,0,100.509,0,492.772,492.772,0,0,0,48.8-7.448c15.834-3.24,31.682-7.315,47.1-12.111,15.248-4.742,30.44-10.3,45.156-16.527,14.58-6.167,29.035-13.13,42.964-20.7,13.83-7.513,27.464-15.8,40.524-24.619,13-8.781,25.727-18.3,37.838-28.294,12.081-9.97,23.824-20.643,34.9-31.723s21.753-22.823,31.723-34.9c9.994-12.11,19.514-24.841,28.294-37.838,8.823-13.06,17.106-26.694,24.619-40.524,7.566-13.929,14.53-28.384,20.7-42.964,6.224-14.716,11.785-29.908,16.527-45.156,4.8-15.42,8.871-31.268,12.111-47.1a492.772,492.772,0,0,0,7.448-48.8,498.884,498.884,0,0,0,0-100.509,492.768,492.768,0,0,0-7.448-48.8c-3.24-15.834-7.315-31.682-12.111-47.1-4.742-15.248-10.3-30.44-16.527-45.156-6.167-14.58-13.13-29.035-20.7-42.964-7.513-13.83-15.8-27.464-24.619-40.524-8.781-13-18.3-25.727-28.294-37.838-9.97-12.081-20.643-23.824-31.723-34.9s-22.823-21.753-34.9-31.723C793.029,103.24,780.3,93.721,767.3,84.94c-13.06-8.823-26.694-17.106-40.524-24.619-13.929-7.566-28.384-14.53-42.964-20.7C669.1,33.4,653.905,27.839,638.657,23.1c-15.42-4.8-31.268-8.871-47.1-12.111a492.772,492.772,0,0,0-48.8-7.448A499.4,499.4,0,0,0,492.5,1m0-1C764.5,0,985,220.5,985,492.5S764.5,985,492.5,985,0,764.5,0,492.5,220.5,0,492.5,0Z" transform="translate(453 -95)"/></g></svg>